<?xml version="1.0" encoding="UTF-8"?>
<svg id="Layer_2" data-name="Layer 2" xmlns="http://www.w3.org/2000/svg" viewBox="0 0 608.81 242.09">
  <defs>
    <style>
      .cls-1 {
        fill: #fff;
      }
    </style>
  </defs>
  <g id="Layer_1-2" data-name="Layer 1">
    <g>
      <path class="cls-1" d="M237.04,77.85c-4.13-7.61-30.21,7.86-38.12,39.74l-12.21,49.28c28.55,17.33,58.6,30.68,91.65,38.57,114.96,27.45,225.33,4.74,326.27-57.42l-7.98,36.73c-74.18,50.79-177.65,65.68-265.37,53.12-50.63-7.25-96.63-25.06-139.05-52.77-20.06-13.11-37.14-27.5-56.14-42.11l-5.95,24.95-26.88-.17,10.64-42.49-33.06-22.51-53.09,58.95,21.16,1.11-.13,5.05H0c.11-1.75.6-5.25,1.77-5.2l5.77.29c9.71.48,13.07-2.79,18.56-8.92l48.93-54.53c-12.57-7.67-29.16-13.9-41.64-6.8,1.95,7.28,1.89,14.28-2.52,17.27s-13.5,2.38-15.65-3.03c-4.39-11.05,4.74-21.58,15.39-23.68,18.2-3.59,33.76,2.36,49.95,9.65L167.31,0l-29.18,133.44,29.98,20.88,17.71-77.16-17.94-1.29c.49.96-.99-1.92-2.41-4.69l43.46-.17-3.56,17.87,15.42-14.29c5.94-5.51,18.12-6.98,26.24-5.51,9.48,1.71,13.22,9.74,14.85,19.96,14.28-18.12,36.37-27.57,49.45-15.8,3.82,3.44,6.72,12.29,5.4,18.36l-15.03,69.02c17.78,3.84,18.5-18,29.15-20.27-3.1,17.67-18.18,29.07-34.63,30.12-3.81.24-9.66-2.52-11.65-5.02s-4.1-10.35-3.39-13.49l14.62-64.58c.61-2.69-1.72-9.2-4.14-10.36-11.33-5.43-30.7,20.17-35.23,38.03l-13.32,52.59-21.75.12,18.75-80.22c-.68-3.16-1.92-7.57-3.08-9.69ZM115.99,116.62l16.5-70.32-46.25,50.25,29.75,20.07Z"/>
      <path class="cls-1" d="M421.51,161.93c9.3-3.34,16.74-12.84,20.39-21.25l2.86,1.22c5.1,2.17-19.19,35.66-35.6,27.45-5.44-2.72-8.26-8.28-11.62-15.46-8.16,11.44-18.12,17.93-30.56,16.9-11.33-.93-23.39-7.74-28.07-20.11-8.86-23.39-.63-49.22,16.99-66.22,17.54-16.92,41.17-23.44,55.75-4.49l3.73-8.86,21.53.02-18.51,78.76c-.75,3.18-.03,9.59,3.11,12.05ZM408.13,91.91c.15-8.92-6.9-18.32-16.13-17.42-22.38,2.18-33.58,46.6-35.32,73.35-.5,7.72,4.92,14.99,11.51,17,24.89,7.59,39.45-44.17,39.94-72.93Z"/>
      <path class="cls-1" d="M451.51,167.62l20.8-90.12-16.97-1.81c-.99-.11-3.84-.01-3.59-.76l1.28-3.84,41.54.02-3.09,17.96c8.76-9.45,13.36-18.6,26.32-20.5,4.67-.68,10.43,1.15,12.93,4.88,2.22,3.31,1.83,10.5-2.12,13.5-2,1.52-9.13,3.3-10.91,1.58l-9.33-9.08c-8.83,8.28-18.18,19.84-21.31,32.43l-13.89,55.89-21.67-.14Z"/>
      <path class="cls-1" d="M528.5,167.65l20.79-90.18-11.97-1.66c.62,1.4-.72-1.64-2.07-4.67l35.83-.02-2.39,17.91,10.36-11.75c4.48-5.08,10.84-8.95,18.48-8.95,3.67,0,9.51,3.16,10.69,5.89,1.42,3.27.08,10.43-2.61,12.85-2.51,2.26-10.53,2.62-13,.25l-8.22-7.91c-10.04,10.52-18.24,23.36-21.92,38.01l-12.7,50.53-21.3-.27Z"/>
      <ellipse class="cls-1" cx="590.31" cy="203.86" rx="7.27" ry="7.27"/>
    </g>
  </g>
</svg>