<?xml version="1.0" encoding="UTF-8"?>
<svg id="Layer_2" data-name="Layer 2" xmlns="http://www.w3.org/2000/svg" viewBox="0 0 880.36 84.37">
  <defs>
    <style>
      .cls-1 {
        fill: #fff;
      }
    </style>
  </defs>
  <g id="Layer_1-2" data-name="Layer 1">
    <g>
      <path class="cls-1" d="M423.33,41.35c8.57,14.84,5.59,38.04-11.89,41.26-16.68,3.07-33.79.66-52.4,1.3l-.15-83.31c17.39.21,35.09-1.81,52.17.99s21.93,25.55,12.27,39.75ZM412.08,33.36c2.65-4.25,2.45-12.2-.28-15.26l-39.49-.34.04,16.09,39.73-.49ZM409.91,66.72c2.37-.7,5-7.31,4.65-9.63-.29-1.94-3.28-6.2-5.5-6.21l-36.7-.27.42,16.23,37.14-.11Z"/>
      <path class="cls-1" d="M302.18,83.74l-13.96.28.02-65.79c-8.67-.54-15.72-.35-23.75,2.09l-.26,63.65-13.25-.05.38-62.21c.05-9,8.69-20.79,17.7-20.78l52.36.03c9.39,0,17.81,12.6,17.89,21.89l.56,61.03-14.16.07.48-58.42c.02-2.95-4.65-7.74-7.42-7.69l-16.6.28.03,65.63Z"/>
      <path class="cls-1" d="M601.6,82.38c-1.43,2.77-11.57,1.87-13.68-.81l-24.2-30.73-16-.31-.33,32.84-13.5.39.05-82.99,52.89.75c14.49.21,18.69,22.19,14.81,33.33-3.45,9.92-8.6,13.1-19.29,16.74l15.48,18.81c1.83,2.23,5.59,8.44,3.77,11.98ZM586.53,32.8c4.08-.12,3.57-14.57-.22-14.61l-38.59-.47.02,16.24,38.79-1.16Z"/>
      <path class="cls-1" d="M751.73,62.28l-37.75.04-.05,21.61-13.13-.31-.03-60.02c0-8.94,6.28-22.38,16.18-22.39l32.27-.03c7.36,0,15.83,12.01,15.89,19.57l.47,62.46-13.93.93.07-21.85ZM753.15,45.53l-1.67-27.44-37.08.03-.69,27.27,39.43.14Z"/>
      <path class="cls-1" d="M218.09,62.29l-37.77.03-.05,21.63-13.16-.34.23-61.94c.03-8.13,7.53-20.51,15.74-20.49l32.23.1c9.67.03,16.53,13.64,16.58,22.8l.32,58.37-14.02,1.91-.1-22.08ZM219.28,45.3l-2.26-27.46-36.08.38-.88,27.36,39.22-.28Z"/>
      <path class="cls-1" d="M880.36,83.31c-5.29,1.8-8.99-.26-11.91-3.93l-38.48-48.31-.42,52.94-13.9-.18.36-82.03c2.58-3.32,9.76.37,12.24,3.46l38.49,48.11.79-51.59c3.25-1.4,9.29-1.35,12.78.02l.06,81.49Z"/>
      <polygon class="cls-1" points="147.81 82.84 134.18 84.1 134.12 50.76 96.29 50.72 96.12 83.33 82.34 83.8 82.34 1.42 96.07 .49 96.36 33.71 134.09 33.7 134.11 .6 147.75 .78 147.81 82.84"/>
      <path class="cls-1" d="M28.04,65.53c9.85,2.57,23.85.55,34.86,1.33,3.24,3.61,3.37,11.52,1.76,17.09l-33.99-.61c-14.88-.27-24.73-13.78-28.73-27.46C-4.09,35.2,3.91,8.56,26.1,1.87c12.09-3.64,24.68-.68,39.07-1.53l-.22,17.47-37.86,1.22c-9.77.31-13.36,14.5-13.49,22.05-.15,8.72,2.39,21.31,14.43,24.46Z"/>
      <path class="cls-1" d="M682.02,66.82c3.88,2.59,4.14,12.11,1.94,17.35l-64.59.12V1.08s12.98.46,12.98.46l.06,65.1,49.61.18Z"/>
      <rect class="cls-1" x="447.28" y=".39" width="65.25" height="17.49"/>
      <rect class="cls-1" x="447.29" y="66.62" width="65.22" height="17.31"/>
      <rect class="cls-1" x="471.35" y="9.59" width="17.11" height="65.23" transform="translate(437.09 522.05) rotate(-89.93)"/>
      <rect class="cls-1" x="784.91" y=".44" width="13.17" height="83.84"/>
    </g>
  </g>
</svg>