<?xml version="1.0" encoding="UTF-8"?>
<svg id="Layer_2" data-name="Layer 2" xmlns="http://www.w3.org/2000/svg" viewBox="0 0 706.44 127.61">
  <defs>
    <style>
      .cls-1 {
        fill: #fff;
      }
    </style>
  </defs>
  <g id="Layer_1-2" data-name="Layer 1">
    <g>
      <path class="cls-1" d="M415.82,72.42l-25.15-.62-1.42,36.68c-.11,2.81-2.84,7.83-4.92,9.13s-8.38-4.57-8.35-7.74l.66-96.7,45.05-.55c14.67-.18,26.99,11.48,28.98,23.35,2.64,15.73-5.09,28.42-20.01,35.42l18.72,35.47c1.12,2.13.29,7.66-1.28,9.22-1.97,1.96-9.32-.38-10.8-3.16l-21.48-40.48ZM423.93,58.12c7.52-.19,14.58-9.96,14.19-16.19-.54-8.64-7.08-15.46-16.12-15.61l-31.25-.49-.32,33.12,33.5-.83Z"/>
      <path class="cls-1" d="M603.33,71.16l-13.05-1.02c-2.83-.22-5.04-5.92-5.47-11.25,10.34-2.06,21.27-2.14,33.44-1.23.64,11.99,1.16,21.65-.81,31.72-3.55,18.14-20.43,28.2-36.88,27.72-17.09-.51-33.3-13-34.77-32.35-2.98-39.04-4.15-67.56,30.84-74.24,13.98-2.67,29.72,5.54,36.69,18.11,1.34,2.42,1.01,10.56-1.32,11.32-10.57,3.41-13.41-17.82-34.15-16.75-6.5.34-18.21,9.24-18.37,16.42l-.85,38c-.19,8.68,5.65,20.41,12.19,23.29,9.81,4.33,20.91,2.6,27.24-3.71s9.3-19.46,5.29-26.02Z"/>
      <path class="cls-1" d="M263.75,70.94l-14.68-.7c-1.58-.07-4.24-4.5-4.47-6.18-.31-2.24,4.51-7.24,6.83-7.2l25.71.37c2.16,12.29,2.65,24.55-1.01,36.08-5.21,16.45-22.02,24.69-37.77,23.54-15.69-1.15-31.18-13.88-32.44-31.99-2.73-39.28-4.3-68.61,30.84-74.59,13.6-2.31,30.15,5.91,36.56,18.93,1,2.04-.06,8.54-1.73,10-7.24,6.32-13.03-17.24-33.08-16.04-23.26,1.39-21.46,31.94-18.2,64.64,1.42,14.29,20.37,18.12,31.02,13.83,11.45-4.61,17.1-19.33,12.44-30.7Z"/>
      <path class="cls-1" d="M345.85,93.21l-41.45-.31-8.04,17.97c-.92,2.05-4.82,5.63-6.9,6.51-2.6,1.11-7.78-6.19-6.73-8.93l34.21-89.44c.9-2.35,5.55-8.37,6.94-7.08l6.51,6.02,36.02,90.25-5.41,8.75c-1.16,1.88-7.27-3.33-8.07-5.41l-7.08-18.34ZM340.08,78.75l-16.22-38.38-15.2,39.18,31.42-.81Z"/>
      <path class="cls-1" d="M523.45,93.68l-42.37-.94-8.19,20.03c-.81,1.99-7.53,5.46-9.28,4.14-2.2-1.67-3.38-6.09-3.44-9.84l34.89-90.76,5.82-4.35c1.22-.91,4.41,2.58,5.5,3.93l36.19,89.81-.96,8.79c-.2,1.85-7.02,2.84-8.18,1.44-3.17-3.82-6.42-11.99-9.96-22.25ZM517.58,79.52l-16.52-38.81-15.48,38.24,32,.56Z"/>
      <path class="cls-1" d="M686.55,93.46l-42.74-.6-8.23,19.86c-.69,1.67-5.3,4.2-7.13,4.68-2.44.64-6.17-7.14-5.24-9.58l34.37-90.03c.78-2.04,5.02-7.27,6.19-6.24l6.43,5.68,36.24,90.66-3.29,8.62c-.89,2.34-8.72-1.16-9.59-3.6l-7.01-19.47ZM680.2,78.74l-16.04-39.18-15.38,40.01,31.42-.82Z"/>
      <path class="cls-1" d="M158.39,127.6H14.09c-6.69.01-13.4-7.03-14.09-13.45L.07,14.27C.07,6.68,6.45.03,14.2.03l145.76-.03c4.79.71,11.62,6.66,11.62,11.13v102.92c.01,5.97-5.89,13.54-13.19,13.54ZM114.17,14.46H27.18v6.3h86.99v-6.3ZM126.09,31.13c2.42.74-1.15-6.52-3.45-8-31.71.47-60.53-.11-91.63,2.26,33.05,13.16,59.84,2.61,95.08,5.74ZM142.78,51.34l-9.7-16.34-92.85-.35,8.96,16.75,93.6-.06ZM150.88,79.5l-6.79-23.37-92.26.32,7.51,23.02,91.54.03ZM151.34,113.87l-.71-30.7-92.59.19.06,30.31,93.23.2Z"/>
    </g>
  </g>
</svg>