<?xml version="1.0" encoding="UTF-8"?>
<svg id="Layer_2" data-name="Layer 2" xmlns="http://www.w3.org/2000/svg" viewBox="0 0 516.88 166.62">
  <defs>
    <style>
      .cls-1 {
        fill: #fff;
      }
    </style>
  </defs>
  <g id="Layer_1-2" data-name="Layer 1">
    <g>
      <path class="cls-1" d="M408.69,166.62l-80.85-.76-258.54-.34c-16.48-.02-32.04-2.35-44.94-12.59C2.22,135.36-4.83,106.55,3.22,79.61,15.12,39.81,57.95,1.95,99.92,1.69L324.5.34l38.74-.34,17.1.55,75.53.33c37.69.16,64.11,33.8,60.72,70.84-4.84,52.85-53.86,95.41-107.9,94.9ZM325.07,156.4l15,.09c22.97.14,45.51.59,68.37-.25,23.17-.85,43.35-7.9,60.94-22.71,32.29-27.2,47.66-72.86,23.04-102.27-9.73-11.62-25.32-19.77-42.36-19.74l-87.96.16-52.69-.44-20.17.73-188.19,1.01c-43.6.23-90.57,43.64-90.32,90.46.14,25.95,19.63,50.89,47.3,51.02l194.14.93,8.35.82,12.24.41c17.31.57,34.32-.33,52.32-.22Z"/>
      <path class="cls-1" d="M428.69,94.87l-38.78.17c-1.13,1.48-2.23,5.19-2.95,9.03l54.45.23-3.98,18.09-84.4-.18,18.57-69.67,83.09-.03c-.58,6.77-1.77,11.71-3.88,17.56l-56.15.1-.99,9.08,39.17.23-4.16,15.39Z"/>
      <path class="cls-1" d="M209.34,95h-38.08c-1.06,2-2.15,6.24-2.41,9.14h54.07s-4.93,17.74-4.93,17.74l-82.87.08,19.23-69.25,82.56-.18-4.73,17.59-53.47-.06c-1.63,2.56-3.18,6.47-3.89,9.23l38.97.15c-.87,5.92-2.04,10.66-4.44,15.57Z"/>
      <path class="cls-1" d="M100.77,94.68l3.47-15.15h36.7s-7.1,25.95-7.1,25.95c-1.54,5.62-3.33,10.94-5.94,16.47l-57.12-.11c-10.71-.02-19.93-9.09-18.64-20.26,1.33-11.46,3.63-23.71,10.5-33.42,5.28-7.47,17.27-14.74,26.47-14.84l57.6-.64c-.21,6.65-1.3,12-3.48,17.52l-56.24-.19-9.63,34.16,38.09.07,2.77-9.13-17.46-.42Z"/>
      <path class="cls-1" d="M315.69,71.45c7.43-6.82,10.22-16.78,21.31-19.13l-18.82,69.91-33.13-.47-26.18-47.02-12.88,46.88-22.62.47,18.93-69.47,25.96-.27,4.4,17.41,4.11-1.38c.86-.29,3.48,2.43,2.55,2.59l-6.22,1.06c5.76,15.23,15.42,30.71,29.08,39.45,0-8.41-.71-18.3,1.91-23.01,6.17-5.96,3.16-9.25,11.6-17Z"/>
      <polygon class="cls-1" points="347.37 121.62 324.32 122.15 343.17 52.69 366.03 52.79 347.37 121.62"/>
      <path class="cls-1" d="M298.46,48.98c-8.8,1.68-12.91-6.58-17.65-1.87-1.43,1.42-.18,8.13,1.79,7.81l17.35-2.78c1.96-.31,3.84-.4,4.87-.26s1.84,3.59,1.46,3.76c-2.82.33-7.5.78-9.51,1.57l-19.82,7.7c-2.67-8.36-3.5-13.77-2.21-21.36l18.65-4.23c1.75,1.93,2.86,3.44,3.69,3.12l4.28-1.63c-5.92-3.32-5.2-9.48-2.4-13.37,1.12,5.55,1.22,7.56,3.63,11.57l2.59-12.63,2.78,2.66c.61.59,3.43-.65,2.83-1.25-2.41-2.41-7.43-8.85-5.78-13.01,1.2-1.96,7.55-2.53,10.07-1.87,2.67.7,6.23,5.13,6.99,7.49l-5.29,5.45-5.58-5.15,2.76,7.71c-2.43,2.64-3.38,8.49-.98,10.24l15.13,10.99-14.07,16.97c-5.2,1.09-13.86-1.31-19.14-4.81,1.58-2.1,6.53-4.48,8.11-3.41l7.53,5.12c0-2.32-.69-5.67.39-6.78l6.25-6.45-7.45.84c-3.41-2-6.97-2.96-11.24-2.15Z"/>
      <path class="cls-1" d="M297.23,100.95c-6.03-6.05-10.48-12.83-13.96-20.74,5.25-3.13,3.83-7.27,1.35-11.75-.09-1.56,4.55-5.84,6.38-5.03l8.99,4c3.02,1.34,7.19,3.96,7.05,6.35-.19,3.33-3.31,6.21-7.62,7.12l-2.21,20.06Z"/>
    </g>
  </g>
</svg>