<?xml version="1.0" encoding="UTF-8"?>
<svg id="Layer_2" data-name="Layer 2" xmlns="http://www.w3.org/2000/svg" viewBox="0 0 1218.45 146.93">
  <defs>
    <style>
      .cls-1 {
        fill: #fff;
      }
    </style>
  </defs>
  <g id="Layer_1-2" data-name="Layer 1">
    <g>
      <path class="cls-1" d="M560.55,39.25l-29.72,103.98-28.2.58-27.74-101.1c-2.01,6.7-3.11,12.73-3.13,18.49l-.18,82.44-46.74-.34-.45-52.08-.03-91,72.42-.06,21.71,78.53L540.08.13l71.01-.09.02,143.87-49.14.11-1.43-104.77Z"/>
      <polygon class="cls-1" points="109.13 102.25 108.84 143.37 0 143.37 0 .09 55.28 0 55.33 102.06 109.13 102.25"/>
      <path class="cls-1" d="M263.17,81.6l-.47,61.82-58.64-.05-.04-60.74c-5.25-.92-10.64-.86-17.61-.52l-.37-29.67,18.5-.76c-3.44-21.68,8.01-39.49,28.83-44.53,18.28-4.43,36.78-1.9,56.07.96l.12,26.85-15.53.53c-7.72.27-13.01,8.61-10.54,16.43l23.25.33.04,28.84-23.61.5Z"/>
      <path class="cls-1" d="M972.94,141.63c-31.5,9.45-78.61,8.4-80.5-21l-2.4-37.43-18.67-.27-.05-29.45,19.24-.14.07-31.83,56.53-15.57.3,47.03,25.32.5.07,29.54-24.84-.04c-1.12,7.57-2.54,19.72,2.95,26.81,4.47,5.78,15.54,3.94,21.86,1.94l.13,29.93Z"/>
      <path class="cls-1" d="M398.05,140.07c-34.48,9.54-79.57,10.07-81.12-25.49l-1.43-32.79-19.32-.74-.05-28.69,20.01-.52-.22-31.64,57.04-15.68-.12,47.43,24.86.04v29.14s-23.73.59-23.73.59c-1.92,10.46-1.75,19.15,2.55,29.14l21.09.82.43,28.38Z"/>
      <path class="cls-1" d="M874.02,107.58c10.91,41.63-69.65,43.55-112.24,33.71l-.08-25.36c18.35,6.75,36.7,9.56,56.07,6.5l5.17-4.05c1.1-.86-3.62-4.02-4.99-4.27l-41.38-7.78c-8.75-1.64-15.52-9.37-17.48-15.68-12.37-39.64,62.8-41.73,104.16-33.98l-.52,24.03c-29.01-8.79-58.63-3.34-51.87,1.59,11.11,8.1,57.17,2.4,63.17,25.29Z"/>
      <path class="cls-1" d="M1176.97,143.92l-56.66.03-.76-89.35,52.82-.17,2.33,17.14c11.82-15.83,26.33-22.12,43.74-17.5l-.06,35.06-13.65-.38c-10.77-.3-26.6,6.69-26.9,19.04l-.87,36.13Z"/>
      <polygon class="cls-1" points="175.83 143.29 151.85 144.23 119.27 143.52 118.94 65.58 175.64 65.32 175.83 143.29"/>
      <polygon class="cls-1" points="175.72 57.24 119.35 57.25 118.95 35.68 175.64 35.44 175.72 57.24"/>
      <path class="cls-1" d="M1218.22,131.62c0,7.17-5.82,12.98-12.99,12.98s-12.99-5.81-12.99-12.98,5.82-12.98,12.99-12.98,12.99,5.81,12.99,12.98ZM1199.15,137.49l-.46-12.48-3.75,7.34c-.7,1.36,2.18,3.71,4.21,5.14ZM1211.5,139.49c4.47-4.7,4.49-9.77.02-14.48l-.02,14.48ZM1204.51,135c-1.64,2.81-3.7,6.1-2.33,6.08l6.25-.08c1.02-.01-.25-2.42-1-3.15l-2.92-2.85Z"/>
      <path class="cls-1" d="M699.44,134.42c-19.51,15.84-54.39,16.08-73.34,2.04-7.48-5.54-7.88-17.76-5.29-26.39,6.97-23.28,50.34-23.94,79.99-22.4-6.84-18.2-43.5-12.25-67.8-4.31l-.13-25.54c39.81-7.87,119.68-10.59,119.78,29.34l.14,56.14-51.75.19-1.6-9.06ZM699.25,104.82l-22.63,2.95c-2.08.27-5.45,4.67-5.71,6.69s2.23,6.56,4.25,7.52c5.58,2.66,13.88,1.94,18.46-1.29,4.66-3.3,8.89-9.28,5.64-15.85Z"/>
      <path class="cls-1" d="M1103.23,118.16l-.14,23.35c-35.42,6.03-91.89,10.33-113.86-14.05-11.46-12.71-14.09-31.99-6.9-47.42,13.13-28.14,63.96-31.17,94.72-24.18,25.57,5.82,37.45,29.05,34.37,55.04l-77.03-.3c5.1,18.77,45.44,13.55,68.83,7.56ZM1062.34,91.33c1.37-13.17-6.51-18.44-16.03-17.23-7.62.97-14,8.2-11.42,17.29l27.44-.06Z"/>
      <path d="M1211.5,139.49l.02-14.48c4.48,4.72,4.46,9.78-.02,14.48Z"/>
      <path d="M1199.15,137.49c-2.03-1.43-4.91-3.78-4.21-5.14l3.75-7.34.46,12.48Z"/>
      <path d="M1204.51,135l2.92,2.85c.75.73,2.02,3.13,1,3.15l-6.25.08c-1.37.02.69-3.27,2.33-6.08Z"/>
    </g>
  </g>
</svg>