<?xml version="1.0" encoding="UTF-8"?>
<svg id="Layer_2" data-name="Layer 2" xmlns="http://www.w3.org/2000/svg" viewBox="0 0 259.16 255.43">
  <defs>
    <style>
      .cls-1 {
        fill: #c4a95b;
      }
    </style>
  </defs>
  <g id="Layer_1-2" data-name="Layer 1">
    <g>
      <path class="cls-1" d="M152.08.57c.2.01,1.26.71,1.09.72l-1.19.08-9.35-.46c-.35-.02-.9-.34-1.55-.91l6.17.29,4.83.28Z"/>
      <g>
        <path class="cls-1" d="M40.87,36.3l3.37-2.86,7.31-5.85c3.18-2.54,6.9-4.69,10.49-6.83,5.53-3.31,11.07-5.95,16.87-8.66l7.01-3.28,3.68-1.37,7.71-2.32c1.98-.59,3.78-.85,5.02-2.79-2.99.49-5.9.9-8.51,1.92l-5.35,2.09-4.99,1.39-9.36,3.8c-4.66,1.89-12.94,6.58-17.1,9.67l-4.28,3.19c-3.62,2.69-7.21,5.3-10.5,8.41l-5.32,5.03c1.47-.28,3.22-.91,3.95-1.53Z"/>
        <path class="cls-1" d="M253.55,104.83l1.66,4.65c.45-2,.49-3.97,0-5.38l-1.69-4.82-1.7-5.35-4.18-9.7-5.43-10.12-4.29-6.59c-5.63-8.65-12.38-15.98-20.08-23l-10.04-7.64c-.29-.22-1.17-.51-1.46-.57s-.32,1-.06,1.14l.79.46,3.75,2.78,3.99,3.39,5.47,5.16,3.73,3.7,5.75,6.19,3.88,5.03c5.96,7.73,10.97,15.84,14.45,25.03l1.9,5.01,1.64,3.76,1.93,6.87Z"/>
        <path class="cls-1" d="M31.89,45.35c1.65-1.77,3.93-3.04,4.34-6.34-2.04,1.43-3.43,3.06-4.92,4.92-1.25,1.56-3.11,2.64-2.97,5.24l3.55-3.83Z"/>
        <path class="cls-1" d="M19.38,59.5c-.55.2-.8,1.83-.44,2.29.3.38,1.46.57,1.71.15s.59-1.36.71-1.85-1.52-.75-1.97-.59Z"/>
        <path class="cls-1" d="M165.89,123.71l.55,9.78.19,33.23c.02,2.64-2.48,6.24-4.86,6.91l-9.03,2.5c-.04.94-.06,1.96.09,2.44s1.43.96,2.05.95l10.97-.16c7.01-.1,14-.1,21,0l12.12.17c.69,0,1.87-1.46,1.69-2.1-.16-.55-1.08-1.39-1.7-1.58l-8.83-2.65c-5.08-1.53-8.2-5.92-8.41-11.12l-.34-8.39-.41-8.01-1.21-15.09-.42-13.61-.54-9.92-.53-10.99-.24-16.25c-.06-4.13,2.7-6.87,6.41-8.17l7.03-2.45,4.45-2c.57-.25,1.21-1.52,1.22-2.09.02-3.27-10.56-1.26-16.11-.45-8.47,1.24-14.04-2.16-15.48,4.08l-1.48,6.45c-.94,4.1-2.39,7.93-4.26,11.73l-9.1,18.5-4.02,7.97-4.2,8.71-8.22,17.22-5.81,12.2c-.44.92-1.25,2.14-2.03,2.27s-2.57-.75-2.86-1.49l-5.23-13.14-6.63-16.87-3.24-8.41-3.95-9.95-7.47-18.93-1.93-5.54-2.48-8.04c-.64-2.08-.9-4.68-3.17-5.87l-4.72-.3-6.97-.53c-6.13-.47-14.16-2.77-20.89-.42-.72,2.89,1.49,4.12,3.74,4.7l8,2.06c1.89.49,4.22,2.29,5.71,3.7.88.83,1.89,3.3,1.92,4.57.1,5.01.26,10-.1,14.91l-.4,5.59-3.01,28.91-.67,8.41-.95,8.01-2.71,19.2c-.56,3.96-3.82,8.26-7.44,9.36l-6.32,1.93c-.77.23-1.79,1.07-1.96,1.76s.98,2.15,1.66,2.14l11.62-.19c5.34-.09,10.67-.06,16.04,0l10.87.1c.64,0,1.68-1.08,1.74-1.62s-.67-1.71-1.2-1.85l-4.39-1.14c-5.25-1.36-10.72-5.24-11.13-11.22-.39-5.61-.39-11.27-.05-16.91l.43-7.03.65-7.33,3.26-30.05c.29-2.65-.46-5.94,2-7.65,2.29.16,2.61,2.83,3.25,4.4l5.09,12.43,1.48,3.47,9.47,23.62,4.3,11.21,1.64,4.28,6.16,17.69,2.26,7.11c.17.54,1.1,1.32,1.56,1.29.37-.02,1.38-.51,1.61-.96l5.2-9.95,3.45-7.07,10.61-21.37,4.24-8.72,5.09-10.38,7.41-15.5,4.44-9.07c.38-.77,1.26-1.86,1.95-2,.89-.19,1.66,1.15,1.7,2.11l.36,8.67.43,17.78Z"/>
        <path class="cls-1" d="M258.25,128.5c1.99-3.91.21-6.73-.51-9.87-.49-2.14-.18-4.56-1.39-6.78-.95,4.63.22,8.7.88,13.15.19,1.26.56,2.62,1.02,3.5Z"/>
        <path class="cls-1" d="M23.28,125.67c0-.67-.36-1.51-.85-2l-.24,8.08c-.11,3.68-.13,7.1.19,10.59,2.5-1.64.9-9.11.9-16.67Z"/>
        <path class="cls-1" d="M231.37,195.34l2.47-4.78c.69-1.34,1.78-3.83,1.91-4.59.05-.32-1.16-.47-1.28-.17l-.54,1.28-8.39,13.84.76.75c.14.14.99-.22,1.14-.43l3.95-5.9Z"/>
        <path class="cls-1" d="M93.38,229.69l-3.65-1.71c-1.68-.78-3.35-1.78-5.38-.27l4.01,1.16c1.64,1.09,3.02,1.94,5.01.81Z"/>
        <path class="cls-1" d="M113.56,232.64l-9.41-.06.28.46,3.28.09c1.83.05,3.88,1.63,5.84-.49Z"/>
        <path class="cls-1" d="M176.88,247.64c-1.86-2.05-4.3-1.07-4.86.81,1.73.29,3.58.06,4.86-.81Z"/>
        <path class="cls-1" d="M228.52,179.94c.63-1.16.76-2.14,2.07-2.42-.33,3.48-1.87,5.99-3.37,8.75l-4.22,7.75-3.4,5.14-7.25,9.21-4.52,4.97-3.55,3.45-4.77,4.27c-7.33,6.56-15.43,11.56-24.49,15.42l-2.62,1.37-6.77,2.35c-.03.31.43,1.39.82,1.35l1.87-.18c2.13-.21,4.05-.73,5.91-1.56l6.99-3.08,6.27-3.32,5.53-3.42,4.78-3.23,6.47-4.45c4.91-4.16,8.99-8.93,13.58-13.39,1.43-1.39,2.64-2.3,4.55-2.95.4,2.41-.35,3.55-1.62,4.9-4.32,4.59-8.56,8.96-13.46,13-5.4,4.46-10.61,8.8-16.72,12.25l-7.66,4.32-13.9,5.96c-1.89.81-3.84.76-5.52,2.07l-4.58.78c3.43,2.87,6.7-1.7,12.67-.11l-7.19,2.55-5.29,1.39c-2.54.67-4.91.65-7.56,1.02l-9.43,1.32-21-.05-7.39-.57-7.04-.9c-3.86-.5-7.54-1.89-11.23-3.04l-4.22-1.31-4.74-1.74-3.83-1.28c-7.44-2.48-13.95-6.52-20.39-11.02l-12.34-8.62-7.39-6.16-4.8-4.67-7.39-8.6c-1.5-1.75-3.48-3.24-4.79-5.2-4.43-6.63-8.79-13.09-11.8-20.58l-3.7-9.21-1.95-6.03-1.5-3.62-1.27-6.75-2.03-4.59c-.56-1.27-1.63-2.71-1.56-4.19.22-4.51-.42-8.31-1.31-12.66l-.3-4.37c-.25-3.61-.32-6.84.01-10.47.49-5.37.79-10.65,1.85-15.94.3-1.5,1.45-3.28,1.49-4.92l.08-3.54c2.36-2.24-.17-4.68,2.97-6.52l.35-3.93c1.23-.73,1.17-2.88,1.68-3.76l2.53-4.33c.6-.28,1.59.89,1.45,1.73-.16.96-.61,1.76-1.55,2.83l.17,3.25c-.37,2.15-.51,3.78-.31,5.67.93-.5,1.41-1.02,1.41-1.43.02-1.95.77-2.69,1.42-4.13l2.33-5.21c1.79-4.01,3.62-7.85,5.91-11.72l2.17-3.67,3.98-6.06c1.23-1.87,2.64-4.12,4.15-5.74l9.36-10.13c4.46-4.82,9.34-8.63,14.95-12,1.34-.81,2.45-2.31,4.37-.61-3.47,4.51-7.85,6.92-12.19,11.24l-3.77,3.75c-2.81,2.8-5.23,5.69-7.74,8.72-1.17,1.41-2.13,2.78-2.83,4.53,3.28-.63,3.82-2.9,5.66-4.81,1.11-1.15,3.26-2.8,4.74-3.78.45-.3,1.12,1.22,1.2,2.19.83-.31,2.27-1.04,3.02-1.77,10.58-10.22,21.72-17.42,35.02-23.36l8.85-3.96-2.36-1.75c1.22-1.2,2.75-2.37,4.49-2.87l5.5-1.57,3.45-1.38c13.06-2.3,26.08-2.88,39.3-2.16l6.78.37,10.4,1.77,4.26,1.47,5.12,1.31,5.49,1.93,4.4,1.65,4.39,2.02,2.76,1.54c-2.27,1.06-3.19-.2-4.69-.81l-3.98-1.64-4.27-1.27-4.67-1.44-7.05-1.87-8.54-1.59c-3.04-.57-6.1-1.36-9.29-1.48-7.63-.29-14.97-.23-22.66-.08l-3.45.5c-.42.06-1.34.83-1.16,1.18.63,1.21,1.38.19,5.53.57l6.01.56,6.41.38c9.89.59,23.38,2.07,32.15,5.49l10.11,3.94c13.72,5.35,25.35,14.22,35.89,24.5l3.96,4.52,5.47,6.54,7.83,11.67c4.96,7.4,13.94,30.25,10.29,29.01-.38-.13-1.02-.72-1.17-1.14l-2.34-6.27-6.13-13.84c-6.14-11.81-14.28-22.31-24-31.28l-8.38-7.18-7.03-5.04c-11.27-7.09-23.52-12.28-36.61-15.13l-5.35-1.17c-4.22-.92-8.71-1.04-13.14-1.52-3.94-.42-7.57-.41-11.49-.15-4.84.32-9.62.31-14.46,1.32l-9.11,1.89-6.14,1.81c-2.18.64-4.26,2.13-6.4,2.97-7.42,2.92-14.47,5.98-21.2,10.27-1.13.72-1.89,1.92-2.67,2.96-2.08,2.79-4.88,5.04-7.58,7.3-3.09,2.58-5.57,5.26-8.29,8.2-8.13,8.79-14.36,18.62-19.45,29.49-3.95,8.43-6.5,17.08-8.69,26.21-1.42,5.89-1.03,19.56-.67,27.38.12,2.67,1.56,5.45,1.31,8.22-.17,1.86,1.45,3.75,1.63,5.02.62,4.25,1.32,10.06,4.17,12.18l.24,3.16,2.03,4.3,1.59,3.18c2.61,5.22,5.72,10.08,9.25,14.82l3.39,4.55,4.74,5.2c7.78,8.53,17.04,15.09,26.98,20.89l3.04,1.51,3.85,1.72,1.09.62c.26.15-.42,1.42-.71,1.35-1.03-.23-3.08-1.21-4.07-1.7l-3.75-1.87-4-2.02c-16.19-8.18-29.88-23.08-39.61-38.52-.78,1.2-.29,2.48.47,3.63l1.99,2.97,3.38,5.21,5.02,6.5c7.35,8.09,15.19,15.55,24.38,21.47l4.85,3.13,8.19,4.29,7.32,3.19,10.59,3.82,7.34,1.59,5.39,1.29c2.43.58,5.17,1.21,7.8,1.22l18.29.07,6.36-.59,9.88-2.11,3.69-.73,5.23-1.66,9.38-3.23c11.42-4.9,21.83-10.97,31.1-19.29l11.25-11.2c5.24-5.22,8.89-11.53,12.42-18.05l2.53-4.68ZM115.56,16.96c-2.92-.95-5.77-.89-8.19.73,3.01.53,5.42.15,8.19-.73ZM106.53,18.11c-3.85-.54-7.39-.34-7.23,1.66,2.44.19,5.21.8,7.23-1.66ZM6.83,106.28h-1v7.74h1v-7.74ZM7.35,148.41c.46-3.91-1.13-7.26-1.72-10.82-.43-2.58-.43-5.42-.56-8.05l-.37-7.81-.34.28-.17,13.19c-.04,2.99.55,5.19.89,8.16l.75,6.59c.03.29,1.33.07,1.36-.22l.15-1.33ZM155.8,251.13c-2.23-1.19-4.22-.8-5.83.24,1.95,1.2,4.37,1.21,5.83-.24Z"/>
        <path class="cls-1" d="M165.89,123.71l-.43-17.78-.36-8.67c-.04-.97-.81-2.3-1.7-2.11-.69.15-1.58,1.23-1.95,2l-4.44,9.07-7.41,15.5-5.09,10.38-4.24,8.72-10.61,21.37-3.45,7.07-5.2,9.95c-.24.45-1.24.94-1.61.96-.46.03-1.39-.75-1.56-1.29l-2.26-7.11-6.16-17.69-1.64-4.28-4.3-11.21-9.47-23.62-1.48-3.47-5.09-12.43c-.64-1.57-.97-4.25-3.25-4.4-2.46,1.71-1.72,5.01-2,7.65l-3.26,30.05-.65,7.33-.43,7.03c-.34,5.64-.34,11.3.05,16.91.41,5.98,5.88,9.86,11.13,11.22l4.39,1.14c.52.14,1.25,1.31,1.2,1.85s-1.1,1.62-1.74,1.62l-10.87-.1c-5.37-.05-10.69-.08-16.04,0l-11.62.19c-.68.01-1.83-1.48-1.66-2.14s1.2-1.52,1.96-1.76l6.32-1.93c3.62-1.11,6.88-5.41,7.44-9.36l2.71-19.2.95-8.01.67-8.41,3.01-28.91.4-5.59c.35-4.91.2-9.9.1-14.91-.03-1.26-1.04-3.73-1.92-4.57-1.49-1.41-3.81-3.21-5.71-3.7l-8-2.06c-2.24-.58-4.46-1.8-3.74-4.7,6.73-2.35,14.77-.05,20.89.42l6.97.53,4.72.3c2.27,1.19,2.53,3.79,3.17,5.87l2.48,8.04,1.93,5.54,7.47,18.93,3.95,9.95,3.24,8.41,6.63,16.87,5.23,13.14c.3.75,2.11,1.62,2.86,1.49s1.59-1.35,2.03-2.27l5.81-12.2,8.22-17.22,4.2-8.71,4.02-7.97,9.1-18.5c1.87-3.8,3.32-7.62,4.26-11.73l1.48-6.45c1.43-6.24,7.01-2.84,15.48-4.08,5.55-.81,16.13-2.82,16.11.45,0,.57-.65,1.84-1.22,2.09l-4.45,2-7.03,2.45c-3.71,1.29-6.47,4.03-6.41,8.17l.24,16.25.53,10.99.54,9.92.42,13.61,1.21,15.09.41,8.01.34,8.39c.21,5.2,3.33,9.59,8.41,11.12l8.83,2.65c.62.19,1.54,1.02,1.7,1.58.19.64-1,2.11-1.69,2.1l-12.12-.17c-7-.1-13.98-.1-21,0l-10.97.16c-.62,0-1.9-.46-2.05-.95s-.13-1.5-.09-2.44l9.03-2.5c2.39-.66,4.88-4.27,4.86-6.91l-.19-33.23-.55-9.78Z"/>
        <path class="cls-1" d="M40.87,36.3c-.73.62-2.48,1.24-3.95,1.53l5.32-5.03c3.29-3.11,6.88-5.72,10.5-8.41l4.28-3.19c4.16-3.09,12.44-7.78,17.1-9.67l9.36-3.8,4.99-1.39,5.35-2.09c2.61-1.02,5.52-1.43,8.51-1.92-1.24,1.94-3.03,2.2-5.02,2.79l-7.71,2.32-3.68,1.37-7.01,3.28c-5.8,2.71-11.34,5.35-16.87,8.66-3.59,2.15-7.32,4.29-10.49,6.83l-7.31,5.85-3.37,2.86Z"/>
        <path class="cls-1" d="M253.55,104.83l-1.93-6.87-1.64-3.76-1.9-5.01c-3.48-9.2-8.49-17.3-14.45-25.03l-3.88-5.03-5.75-6.19-3.73-3.7-5.47-5.16-3.99-3.39-3.75-2.78-.79-.46c-.26-.15-.23-1.2.06-1.14s1.17.34,1.46.57l10.04,7.64c7.7,7.02,14.45,14.35,20.08,23l4.29,6.59,5.43,10.12,4.18,9.7,1.7,5.35,1.69,4.82c.5,1.41.46,3.38,0,5.38l-1.66-4.65Z"/>
        <path class="cls-1" d="M231.37,195.34l-3.95,5.9c-.14.22-1,.57-1.14.43l-.76-.75,8.39-13.84.54-1.28c.13-.3,1.34-.15,1.28.17-.12.76-1.22,3.25-1.91,4.59l-2.47,4.78Z"/>
        <path class="cls-1" d="M258.25,128.5c-.47-.89-.84-2.25-1.02-3.5-.66-4.45-1.82-8.52-.88-13.15,1.22,2.23.9,4.64,1.39,6.78.72,3.15,2.49,5.96.51,9.87Z"/>
        <path class="cls-1" d="M23.28,125.67c0,7.57,1.6,15.03-.9,16.67-.33-3.49-.3-6.91-.19-10.59l.24-8.08c.49.5.85,1.33.85,2Z"/>
        <path class="cls-1" d="M31.89,45.35l-3.55,3.83c-.14-2.61,1.72-3.68,2.97-5.24,1.49-1.87,2.88-3.49,4.92-4.92-.41,3.3-2.69,4.57-4.34,6.34Z"/>
        <path class="cls-1" d="M93.38,229.69c-2,1.12-3.37.27-5.01-.81l-4.01-1.16c2.03-1.51,3.7-.51,5.38.27l3.65,1.71Z"/>
        <path class="cls-1" d="M176.88,247.64c-1.29.86-3.14,1.1-4.86.81.57-1.87,3-2.85,4.86-.81Z"/>
        <path class="cls-1" d="M113.56,232.64c-1.96,2.12-4.02.54-5.84.49l-3.28-.09-.28-.46,9.41.06Z"/>
        <path class="cls-1" d="M19.38,59.5c.46-.16,2.09.11,1.97.59-.12.5-.46,1.44-.71,1.85s-1.4.23-1.71-.15c-.36-.45-.11-2.09.44-2.29Z"/>
      </g>
    </g>
  </g>
</svg>